<svg width="48" height="48" viewBox="0 0 48 48" fill="none" xmlns="http://www.w3.org/2000/svg">
<path d="M0 4C0 1.79086 1.79086 0 4 0H44C46.2091 0 48 1.79086 48 4V44C48 46.2091 46.2091 48 44 48H4C1.79086 48 0 46.2091 0 44V4Z" fill="#202024"/>
<path d="M25.6657 18.4046L32.8544 25.5933C33.5137 26.2526 33.5137 27.3311 32.8544 27.9896L32.2544 28.5903C31.5967 29.2488 30.5174 29.2488 29.8589 28.5903L24.3727 23.1041L18.8864 28.5903C18.2279 29.2488 17.1487 29.2488 16.4909 28.5903L15.8909 27.9896C15.2317 27.3311 15.2317 26.2526 15.8909 25.5933L23.0812 18.4046C23.4344 18.0506 23.9084 17.8931 24.3734 17.9193C24.8362 17.8931 25.3109 18.0506 25.6657 18.4046Z" fill="#E1E1E6"/>
</svg>
