<svg width="50" height="50" viewBox="0 0 50 50" fill="none" xmlns="http://www.w3.org/2000/svg">
<path d="M43.5 24.8646C43.5 14.446 35.1053 6 24.75 6C14.3947 6 6 14.446 6 24.8646C6 34.2804 12.8566 42.0848 21.8203 43.5V30.3176H17.0596V24.8646H21.8203V20.7085C21.8203 15.9805 24.6196 13.369 28.9025 13.369C30.9539 13.369 33.0996 13.7374 33.0996 13.7374V18.3799H30.7353C28.4061 18.3799 27.6797 19.834 27.6797 21.3259V24.8646H32.8799L32.0486 30.3176H27.6797V43.5C36.6434 42.0848 43.5 34.2804 43.5 24.8646Z" fill="#E1E1E6"/>
<path d="M31.9516 30.3058L32.7808 24.7379H27.5936V21.1246C27.5936 19.6013 28.3181 18.1165 30.6416 18.1165H33V13.3762C33 13.3762 30.8596 13 28.8133 13C24.5411 13 21.7489 15.6666 21.7489 20.4942V24.7379H17V30.3058H21.7489V43.766C22.701 43.9199 23.677 44 24.6712 44C25.6654 44 26.6414 43.9199 27.5936 43.766V30.3058H31.9516Z" fill="#09090A"/>
</svg>
