<svg width="30" height="30" viewBox="0 0 30 30" fill="none" xmlns="http://www.w3.org/2000/svg">
<path d="M9.84961 3.6001C6.40336 3.6001 3.59961 6.40385 3.59961 9.8501V19.8501C3.59961 23.2963 6.40336 26.1001 9.84961 26.1001H19.8496C23.2959 26.1001 26.0996 23.2963 26.0996 19.8501V9.8501C26.0996 6.40385 23.2959 3.6001 19.8496 3.6001H9.84961ZM9.84961 6.1001H19.8496C21.9171 6.1001 23.5996 7.7826 23.5996 9.8501V19.8501C23.5996 21.9176 21.9171 23.6001 19.8496 23.6001H9.84961C7.78211 23.6001 6.09961 21.9176 6.09961 19.8501V9.8501C6.09961 7.7826 7.78211 6.1001 9.84961 6.1001ZM21.0996 7.3501C20.7681 7.3501 20.4501 7.48179 20.2157 7.71621C19.9813 7.95063 19.8496 8.26858 19.8496 8.6001C19.8496 8.93162 19.9813 9.24956 20.2157 9.48398C20.4501 9.7184 20.7681 9.8501 21.0996 9.8501C21.4311 9.8501 21.7491 9.7184 21.9835 9.48398C22.2179 9.24956 22.3496 8.93162 22.3496 8.6001C22.3496 8.26858 22.2179 7.95063 21.9835 7.71621C21.7491 7.48179 21.4311 7.3501 21.0996 7.3501ZM14.8496 8.6001C11.4034 8.6001 8.59961 11.4038 8.59961 14.8501C8.59961 18.2963 11.4034 21.1001 14.8496 21.1001C18.2959 21.1001 21.0996 18.2963 21.0996 14.8501C21.0996 11.4038 18.2959 8.6001 14.8496 8.6001ZM14.8496 11.1001C16.9171 11.1001 18.5996 12.7826 18.5996 14.8501C18.5996 16.9176 16.9171 18.6001 14.8496 18.6001C12.7821 18.6001 11.0996 16.9176 11.0996 14.8501C11.0996 12.7826 12.7821 11.1001 14.8496 11.1001Z" fill="#E1E1E6"/>
</svg>
