<svg width="237" height="76" viewBox="0 0 237 76" fill="none" xmlns="http://www.w3.org/2000/svg">
<path d="M33.9974 10.9C33.8974 10.7667 33.5474 10.5167 32.9474 10.15C32.3474 9.78333 31.5974 9.4 30.6974 9C29.7974 8.56667 28.814 8.21666 27.7474 7.95C26.6807 7.65 25.614 7.5 24.5474 7.5C21.614 7.5 20.1474 8.48333 20.1474 10.45C20.1474 11.65 20.7807 12.5 22.0474 13C23.3474 13.5 25.1974 14.1 27.5974 14.8C29.864 15.4333 31.814 16.1667 33.4474 17C35.114 17.8 36.3974 18.8833 37.2974 20.25C38.1974 21.5833 38.6474 23.35 38.6474 25.55C38.6474 27.55 38.2807 29.25 37.5474 30.65C36.814 32.0167 35.814 33.1333 34.5474 34C33.2807 34.8333 31.8474 35.45 30.2474 35.85C28.6807 36.2167 27.0474 36.4 25.3474 36.4C22.714 36.4 20.0474 36.0167 17.3474 35.25C14.6474 34.45 12.264 33.3667 10.1974 32L13.7974 24.85C13.9307 25.0167 14.364 25.3333 15.0974 25.8C15.8307 26.2333 16.7474 26.7 17.8474 27.2C18.9474 27.7 20.1474 28.1333 21.4474 28.5C22.7807 28.8333 24.1307 29 25.4974 29C28.3974 29 29.8474 28.1167 29.8474 26.35C29.8474 25.45 29.464 24.75 28.6974 24.25C27.964 23.7167 26.9474 23.2667 25.6474 22.9C24.3474 22.5 22.8807 22.05 21.2474 21.55C17.9807 20.55 15.564 19.3333 13.9974 17.9C12.464 16.4667 11.6974 14.4167 11.6974 11.75C11.6974 9.25 12.2807 7.15 13.4474 5.45C14.6474 3.71667 16.2474 2.41666 18.2474 1.55C20.2474 0.649999 22.4307 0.199999 24.7974 0.199999C27.2974 0.199999 29.664 0.633332 31.8974 1.5C34.1307 2.33333 36.0307 3.2 37.5974 4.1L33.9974 10.9ZM71.4591 36V14.85L63.8091 30.25H59.3091L51.6591 14.85V36H43.4591V0.499998H52.3591L61.5591 19.05L70.8091 0.499998H79.6591V36H71.4591ZM95.4267 0.499998H104.277L116.477 36H108.077L105.327 28.05H94.2767L91.5767 36H83.1767L95.4267 0.499998ZM103.977 22.4L99.8267 8.75L95.5767 22.4H103.977ZM119.973 36V0.499998H128.173V28.8H145.373V36H119.973ZM149.221 36V0.499998H157.421V28.8H174.621V36H149.221Z" fill="white"/>
<path d="M99.0785 40.55H106.629L110.329 51.9L114.029 40.55H121.629L115.579 57.05L119.179 66.5L128.079 40.5H137.029L123.179 76H116.079L110.329 62.1L104.629 76H97.4785L83.6785 40.5H92.5785L101.529 66.5L105.029 57.05L99.0785 40.55ZM146.133 40.5H154.983L167.183 76H158.783L156.033 68.05H144.983L142.283 76H133.883L146.133 40.5ZM154.683 62.4L150.533 48.75L146.283 62.4H154.683ZM172.948 40.5L181.298 66.4L189.548 40.5H198.198L185.298 76H177.248L164.248 40.5H172.948ZM226.44 68.8V76H201.49V40.5H225.99V47.7H209.69V54.6H223.69V61.25H209.69V68.8H226.44Z" fill="white"/>
</svg>
