<svg width="50" height="50" viewBox="0 0 50 50" fill="none" xmlns="http://www.w3.org/2000/svg">
<path fill-rule="evenodd" clip-rule="evenodd" d="M38.0363 11.4496C34.511 7.9372 29.823 6.00204 24.8283 6C14.5368 6 6.1606 14.3355 6.15659 24.5809C6.15515 27.8561 7.01494 31.0528 8.64894 33.8708L6 43.5L15.8981 40.916C18.6253 42.3964 21.6958 43.1767 24.8208 43.1778H24.8284C24.829 43.1778 24.828 43.1778 24.8286 43.1778C35.119 43.1778 43.4957 34.8415 43.5 24.5958C43.5018 19.6305 41.5615 14.9619 38.0363 11.4496ZM24.8283 40.0395H24.822C22.0374 40.0384 19.3061 39.2938 16.9233 37.8866L16.3567 37.552L10.483 39.0853L12.0509 33.386L11.6818 32.8015C10.1284 30.3425 9.30796 27.5003 9.30917 24.582C9.3125 16.0664 16.2745 9.13842 24.8346 9.13842C28.9797 9.1397 32.8763 10.7484 35.8063 13.6678C38.7363 16.5871 40.349 20.4676 40.3473 24.5945C40.3439 33.1108 33.3821 40.0395 24.8283 40.0395Z" fill="#E1E1E6"/>
<path fill-rule="evenodd" clip-rule="evenodd" d="M33.3408 28.4719C32.8743 28.2395 30.5805 27.1164 30.1529 26.9613C29.7253 26.8064 29.4142 26.7289 29.1033 27.1937C28.7923 27.6584 27.8982 28.7044 27.626 29.0143C27.3539 29.324 27.0817 29.363 26.6152 29.1304C26.1487 28.898 24.6455 28.4078 22.8635 26.8259C21.4765 25.5947 20.5402 24.0743 20.268 23.6094C19.9959 23.1446 20.239 22.8934 20.4726 22.6618C20.6825 22.4537 20.9392 22.1195 21.1725 21.8484C21.4057 21.5773 21.4835 21.3835 21.639 21.0738C21.7945 20.7639 21.7168 20.4927 21.6001 20.2604C21.4835 20.028 20.5505 17.7426 20.1617 16.8128C19.7829 15.9076 19.3984 16.0302 19.1119 16.0158C18.8402 16.0023 18.5288 15.9995 18.2178 15.9995C17.9068 15.9995 17.4013 16.1157 16.9738 16.5805C16.5461 17.0453 15.3408 18.1687 15.3408 20.4539C15.3408 22.7393 17.0126 24.9472 17.2459 25.257C17.4791 25.567 20.5356 30.2566 25.2156 32.2678C26.3287 32.7463 27.1978 33.0319 27.8753 33.2459C28.9929 33.5993 30.01 33.5494 30.8138 33.4298C31.7102 33.2965 33.5741 32.3067 33.9628 31.2222C34.3517 30.1375 34.3517 29.2078 34.2349 29.0142C34.1184 28.8206 33.8073 28.7044 33.3408 28.4719Z" fill="#E1E1E6"/>
</svg>
